{"title":"Here Comes the Devil (1920x1080) [Phr0stY].mkv","uid":9382534,"size":3289755568,"categoryP":"video","categoryS":"hd___movies","magnet":"?xt=urn:btih:509e39015521ff4f78efbf29ca5ba5469d91230e&amp;dn=Here+Comes+the+Devil+%281920x1080%29+%5BPhr0stY%5D.mkv&amp;tr=udp%3A%2F%2Ftracker.openbittorrent.com%3A80&amp;tr=udp%3A%2F%2Fopen.demonii.com%3A1337&amp;tr=udp%3A%2F%2Ftracker.coppersurfer.tk%3A6969&amp;tr=udp%3A%2F%2Fexodus.desync.com%3A6969","seeders":4,"leechers":1,"uploader":"frostyon420","files":-1,"time":1387735272,"description":"FIXED RELEASE!!!!!\n\nPlease Seed :) SUPPORT THE SMALL GUYS TORRENTS, ALWAYS HD never RE-ENCODED! over 400 torrents and counting;)\n\nJoin me on the NEW Superbay for updates on my torrents or to let me know if I need to fix something :)\n\nALSO!!!!! if u have a show request I might consider uploading it, if I can access the content online.\n  &lt;a href=&quot;\nhttps://forum.suprbay.org/showthread.php?tid=369&quot; rel=&quot;nofollow&quot; target=&quot;_NEW&quot;&gt;\nhttps://forum.suprbay.org/showthread.php?tid=369&lt;/a&gt;\n\nOR\n\nsign up and Rate me as an uploader ;)\n  &lt;a href=&quot;\nhttp://bayimg.com/dacNAaaFJ&quot; rel=&quot;nofollow&quot; target=&quot;_NEW&quot;&gt;\nhttp://bayimg.com/dacNAaaFJ&lt;/a&gt;\n\nADD my RSS feed to your torrent client for my latest torrents  &lt;a href=&quot;\nhttp://rss.thepiratebay.sx/user/178e8d96586bbd0dcb5c2729df9a5c4d&quot; rel=&quot;nofollow&quot; target=&quot;_NEW&quot;&gt;\nhttp://rss.thepiratebay.sx/user/178e8d96586bbd0dcb5c2729df9a5c4d&lt;/a&gt;\n\nNOW Seedbox supported!!! :)\n\nIF YOU HAVE ANY HOT NEW ITUNES CONTENT AND YOU WANT TO CONTRIBUTE TO TPB PLEASE PM ME ON SUPERBAY... REMOVE YOUR DRM!\n\n[Itunes-Rip]\n\nComplete name                            : H:MoviesHere Comes the Devil (2013)Here Comes the Devil (1920x1080)(5.1) [Phr0stY].mkv\nFormat                                   : Matroska\nFormat version                           : Version 2\nFile size                                : 3.06 GiB\nDuration                                 : 1h 37mn\nOverall bit rate                         : 4 494 Kbps\nWriting application                      : Lavf54.59.106\nWriting library                          : Lavf54.59.106\n\nVideo\nID                                       : 1\nFormat                                   : V_MJPEG\nCodec ID                                 : V_MJPEG\nDuration                                 : 1h 37mn\nBit rate                                 : 4 021 Kbps\nWidth                                    : 640 pixels\nHeight                                   : 264 pixels\nDisplay aspect ratio                     : 2.40:1\nFrame rate mode                          : Constant\nFrame rate                               : 23.976 fps\nBits/(Pixel*Frame)                       : 0.993\nStream size                              : 2.74 GiB (89%)\nDefault                                  : Yes\nForced                                   : No\n\nAudio\nID                                       : 2\nFormat                                   : AC-3\nFormat/Info                              : Audio Coding 3\nMode extension                           : CM (complete main)\nFormat settings, Endianness              : Big\nCodec ID                                 : A_AC3\nDuration                                 : 1h 37mn\nBit rate mode                            : Constant\nBit rate                                 : 384 Kbps\nChannel count                            : 2 channels\nOriginal Channel count                   : 6 channels\nChannel positions                        : Front: L C R, Side: L R, LFE\nSampling rate                            : 48.0 KHz\nBit depth                                : 16 bits\nCompression mode                         : Lossy\nStream size                              : 268 MiB (9%)\nDefault                                  : Yes\nForced                                   : No","torrent":{"xt":"urn:btih:509e39015521ff4f78efbf29ca5ba5469d91230e","amp;dn":"Here+Comes+the+Devil+%281920x1080%29+%5BPhr0stY%5D.mkv","amp;tr":["udp%3A%2F%2Ftracker.openbittorrent.com%3A80","udp%3A%2F%2Fopen.demonii.com%3A1337","udp%3A%2F%2Ftracker.coppersurfer.tk%3A6969","udp%3A%2F%2Fexodus.desync.com%3A6969"],"infoHash":"509e39015521ff4f78efbf29ca5ba5469d91230e","infoHashBuffer":{"type":"Buffer","data":[80,158,57,1,85,33,255,79,120,239,191,41,202,91,165,70,157,145,35,14]},"announce":[],"urlList":[]}}